PathFileType	4	(X/Y/Z)	C:\Data\4407\4407cd02.trc
DataRate	CameraRate	NumFrames	NumMarkers	Units	OrigDataRate	OrigDataStartFrame	OrigNumFrames
200.00	200.00	      6	29	mm	200.00	501	      2000
Frame#	Time	Offset			RShoulder			RUpperArm			RElbow			RForearm			RWrist			LShoulder			LUpperArm			LElbow			LForearm			LWrist			LPSIS			RPSIS			RASIS			RThigh			RKnee			RShank			RAnkle			RHeel			RLat5			RToe			LASIS			LThigh			LKnee			LShank			LAnkle			LHeel			LLat5			LToe			
		X1	Y1	Z1	X2	Y2	Z2	X3	Y3	Z3	X4	Y4	Z4	X5	Y5	Z5	X6	Y6	Z6	X7	Y7	Z7	X8	Y8	Z8	X9	Y9	Z9	X10	Y10	Z10	X11	Y11	Z11	X12	Y12	Z12	X13	Y13	Z13	X14	Y14	Z14	X15	Y15	Z15	X16	Y16	Z16	X17	Y17	Z17	X18	Y18	Z18	X19	Y19	Z19	X20	Y20	Z20	X21	Y21	Z21	X22	Y22	Z22	X23	Y23	Z23	X24	Y24	Z24	X25	Y25	Z25	X26	Y26	Z26	X27	Y27	Z27	X28	Y28	Z28	X29	Y29	Z29	

501	2.500	338.45331	-257.33521	1370.37354	450.95673	-128.26579	1489.28064	531.78662	-211.59749	1320.34412	627.40863	-168.17886	1198.76453	672.93909	-131.83629	1043.98157	744.93585	-17.90289	1012.66730	101.91636	-138.25354	1488.57947	49.30938	-231.79065	1279.71106	-41.95047	-212.36320	1192.52966	-96.05556	-158.39763	1050.77551	-172.96651	-32.30579	1007.16571	244.15750	-262.46515	994.18292	294.59232	-265.48871	995.49512	410.13159	-61.75265	991.15100	381.89728	-63.55346	660.06866	445.04553	-202.94130	486.36761	408.36359	-226.25681	401.66010	375.34207	-528.91180	215.43401	323.25455	-574.34833	254.47154	403.95908	-503.05447	72.29735	297.51709	-475.69522	75.13783	158.67043	-42.63435	987.12128	197.82246	47.15061	688.72217	152.20885	28.74557	519.45166	201.30225	62.98850	450.07672	187.71838	31.95502	102.99480	236.51254	-22.63010	73.73401	164.76245	188.84326	66.29287	276.22479	188.05009	58.83004	
502	2.505	338.40100	-257.27197	1370.88464	450.95831	-128.12915	1489.66064	531.55664	-211.21913	1320.51550	627.12341	-167.65050	1198.89941	672.71442	-131.49078	1044.14453	744.88641	-17.82324	1012.58948	101.69331	-137.95706	1489.10852	49.29582	-231.28490	1280.25720	-42.06148	-212.09035	1193.07178	-95.96982	-158.32487	1051.20544	-172.93546	-32.30523	1007.19385	244.09203	-262.48856	994.93732	294.61002	-265.36673	996.17969	409.03726	-61.26508	991.27490	382.47681	-59.98293	660.32050	445.84515	-197.10103	485.53641	409.16830	-221.10793	400.74500	375.10083	-526.49524	219.32430	323.30185	-569.55786	261.01239	403.75113	-506.32355	74.97041	298.33643	-477.43741	77.94254	157.74443	-42.94513	988.15173	196.26701	45.99788	688.65381	151.39963	26.56310	519.51630	200.24886	61.05523	450.05847	187.83115	28.64174	103.80335	235.64682	-27.73774	73.85230	164.97202	183.28200	65.47748	276.02573	182.30420	58.08488	
503	2.510	338.53128	-257.21872	1371.67236	451.00845	-128.03438	1490.04309	531.46515	-210.88753	1320.69043	626.93860	-166.98192	1199.09253	672.46185	-131.17690	1044.25146	744.89691	-17.70252	1012.63300	101.51041	-137.66484	1489.69617	49.26015	-230.91287	1281.00391	-42.18947	-211.59065	1193.64172	-96.08271	-158.19850	1051.48853	-172.96263	-32.33598	1007.22833	243.96432	-262.42410	995.47778	294.55444	-265.23810	996.63281	408.12057	-60.74398	991.54279	382.52286	-56.69092	660.78387	446.63470	-191.08943	484.74484	410.00519	-215.93402	400.24188	375.74857	-522.73474	223.96385	323.30872	-564.60657	267.13217	403.48849	-508.87198	78.04168	298.91260	-478.61923	80.60598	156.53355	-43.20614	989.32422	194.77832	44.97377	688.50378	150.65646	24.32298	519.51648	199.29649	58.58013	449.90506	186.72829	19.54902	103.74015	236.43648	-34.14011	74.09749	165.11258	177.59325	64.94853	276.39651	176.31602	57.49310	
504	2.515	338.60587	-257.07938	1372.48792	451.17599	-127.82569	1490.42456	531.54962	-210.56398	1320.98364	626.76416	-166.45204	1199.27698	672.30530	-130.89989	1044.42126	744.89697	-17.53667	1012.60077	101.32363	-137.32460	1490.26270	48.89392	-230.75700	1281.85107	-42.33431	-211.10909	1194.19592	-96.02334	-158.02786	1052.01953	-173.02315	-32.18309	1007.36542	243.82529	-262.61728	996.20209	294.58481	-265.05109	996.90863	407.10922	-60.37408	991.75275	382.25302	-52.96616	661.64081	447.15002	-185.16461	483.99536	410.16681	-210.27083	399.75208	376.08905	-519.01794	228.86577	323.22931	-559.40826	272.94504	403.34106	-511.26199	81.18346	299.53293	-479.58151	83.10003	155.57526	-43.53464	990.32745	193.07567	43.67389	688.14282	150.03383	21.64375	519.44623	198.71097	55.82947	449.66452	186.66925	12.82087	103.23412	236.38078	-40.07401	74.02200	165.34573	171.88893	64.38780	276.67462	170.31374	56.86535	
505	2.520	338.69778	-257.08148	1373.19324	451.36920	-127.64149	1490.86096	531.67877	-210.16034	1321.23364	626.73248	-165.85593	1199.50415	672.14911	-130.54503	1044.54993	744.76617	-17.27881	1012.56628	101.24049	-137.11540	1490.79749	48.72538	-230.39999	1282.52124	-42.55755	-210.63879	1194.83838	-96.18831	-157.84871	1052.41687	-173.10345	-32.15769	1007.34418	243.43352	-262.86856	996.93457	294.52502	-265.17908	997.42725	406.15808	-60.04792	992.08258	381.43820	-49.73312	662.52661	447.67355	-178.78477	483.20810	410.30038	-204.67137	399.26303	376.46585	-515.03662	233.22729	323.18781	-554.00592	278.55173	403.03061	-513.14740	84.35374	300.24405	-480.14719	85.13988	154.70299	-43.98235	991.22778	191.49245	42.27659	687.74963	149.51999	18.98161	519.28442	198.11093	52.95760	449.54855	187.78947	7.98410	102.44350	236.36440	-45.71288	74.26924	165.48384	166.14693	64.07169	276.78580	164.37921	56.16391	
506	2.525	338.81693	-257.10150	1374.05676	451.59058	-127.45437	1491.32520	532.58606	-210.40474	1321.61389	626.61938	-165.28574	1199.81885	672.09760	-130.30495	1044.77502	744.72510	-17.10940	1012.54468	101.12177	-136.90800	1491.40845	48.53746	-230.06781	1283.13965	-42.72158	-210.15540	1195.45740	-96.29133	-157.55563	1052.88025	-173.20027	-32.04216	1007.50464	243.35051	-263.03729	997.46417	294.29211	-265.25720	997.86023	405.26703	-60.04074	992.64020	380.41919	-46.58537	663.41760	448.08810	-172.27969	482.70065	410.34604	-198.85184	398.94882	377.28314	-513.23071	237.31316	322.97702	-548.53033	283.55246	402.85706	-514.38861	87.49139	301.17380	-480.06171	87.08920	153.85017	-44.39577	992.26440	190.02904	40.97961	687.36749	149.06316	16.18527	519.12115	197.84796	50.15635	449.41309	187.61606	1.72806	103.66923	236.43977	-51.72104	74.57977	165.81744	160.22629	63.44395	276.95688	158.42720	55.58898	
